<svg width="96" height="70" viewBox="0 0 96 70" fill="none" xmlns="http://www.w3.org/2000/svg">
<path d="M34.4379 37.3994C36.5018 40.5849 38.3568 43.5932 40.356 46.5041C44.1454 52.0218 48.2086 57.3269 53.1404 61.8999C55.6372 64.2144 58.2989 66.2957 61.4758 67.6272C64.8942 69.059 68.1683 68.8435 71.307 66.8301C74.4751 64.796 76.7982 61.956 78.8769 58.8798C79.3657 58.1565 79.8397 57.4214 80.3579 56.6302C80.4521 56.8427 80.5434 56.9549 80.5169 57.0081C78.4294 61.0703 75.8736 64.7576 72.1343 67.4973C68.6306 70.0628 64.8589 70.4554 60.8428 68.9025C57.7777 67.7187 55.1337 65.8588 52.6575 63.7421C47.2016 59.0776 42.7056 53.5569 38.5864 47.7204C36.5195 44.7918 34.591 41.7598 32.6654 38.7338C32.1854 37.978 31.6643 37.6474 30.7721 37.671C28.9967 37.7212 27.2271 37.5706 25.6019 36.7676C24.218 36.0886 23.1698 35.1144 23.0344 33.4375C22.9107 31.8935 23.3612 30.5739 24.6862 29.7355C26.126 28.8232 27.6659 28.8262 29.1557 29.6734C30.4807 30.4263 31.3404 31.6249 32.0853 32.915C32.4269 33.5054 32.7537 34.1018 33.1306 34.7719C33.6635 34.6952 34.1552 34.6834 34.6116 34.5535C40.724 32.8087 45.0669 28.9915 47.3841 23.0812C49.9016 16.6601 46.8777 8.91639 40.6504 5.28516C36.2899 2.7433 31.5465 1.99049 26.6 2.37428C19.566 2.92044 13.3593 5.44754 8.22728 10.4014C4.01981 14.4636 1.53772 19.3289 1.39934 25.2747C1.29334 29.8063 2.95689 33.6176 6.06024 36.8503C8.15661 39.0349 10.6475 40.6734 13.3239 42.1082C13.2091 42.2174 13.1326 42.3208 13.1061 42.309C8.54821 40.3162 4.60279 37.5293 2.17959 33.0626C-0.964976 27.2674 -0.526266 21.298 2.33858 15.6327C6.24573 7.90083 12.7881 3.23042 21.0764 1.10777C27.395 -0.510045 33.7047 -0.518903 39.8231 2.17647C46.548 5.13755 50.9203 11.5852 50.7878 18.6085C50.6877 23.8753 48.3116 28.1412 44.6165 31.737C42.1462 34.1402 39.2666 35.8761 35.9454 36.8474C35.539 36.9684 35.1416 37.1426 34.4379 37.3994ZM30.3482 34.9993C29.8476 33.5261 29.0791 32.4928 27.925 31.7872C27.1182 31.2942 26.1083 31.5186 25.7049 32.1799C25.2427 32.9386 25.543 33.8774 26.4705 34.3852C27.6129 35.0081 28.8495 35.1587 30.3482 34.9993Z" fill="white"/>
<path d="M95.0445 43.3245C93.8697 42.9348 93.8343 41.8956 93.8255 40.9361C93.8049 39.1678 93.8932 37.3964 93.9197 35.6281C93.9256 35.2561 93.8726 34.8811 93.5693 34.3881C93.2896 34.8044 92.9922 35.2088 92.7331 35.6399C91.4082 37.8334 90.0037 39.959 88.0075 41.624C86.8886 42.5569 85.6814 43.2684 84.2004 43.3835C82.3161 43.5311 81.206 42.3591 81.4946 40.4844C81.5917 39.8586 81.7772 39.2298 82.0363 38.6541C83.8265 34.642 86.3704 31.1909 89.78 28.404C90.045 28.1855 90.3188 27.97 90.6132 27.7988C91.5819 27.2319 92.5653 26.8629 93.64 27.5744C94.6617 28.2534 94.9296 29.2158 94.8619 30.3849C94.8325 30.872 95.0592 31.3709 95.1505 31.8699C95.23 32.3009 95.3271 32.7319 95.3448 33.1659C95.4449 35.4243 95.5126 37.6858 95.6157 39.9442C95.6392 40.4254 95.7364 40.9125 95.86 41.379C96.125 42.3827 96.0956 42.492 95.0445 43.3245ZM93.4692 31.2588C93.5458 29.638 92.9098 28.7818 91.9264 28.9708C91.4229 29.0682 90.8988 29.3398 90.5043 29.6764C87.5187 32.2389 85.2486 35.3417 83.694 38.9641C83.5586 39.277 83.4702 39.6165 83.4084 39.953C83.1905 41.1487 83.6646 41.6299 84.8659 41.4174C86.1702 41.1871 87.2096 40.4608 88.1517 39.5722C90.2481 37.5883 91.6644 35.1114 93.0688 32.6375C93.3485 32.1444 93.3986 31.5185 93.4692 31.2588Z" fill="white"/>
<path d="M64.223 43.3364C63.2573 42.9497 63.1336 42.1172 63.1277 41.2699C63.113 39.5015 63.1454 37.7331 63.1571 35.9647C63.1601 35.4894 63.1571 35.0112 63.1571 34.5359C63.0423 34.4886 62.9275 34.4414 62.8156 34.3971C62.5123 34.8517 62.1885 35.2975 61.9058 35.764C60.6015 37.9102 59.2206 39.9945 57.2596 41.6153C56.0642 42.6013 54.7805 43.3778 53.167 43.3984C51.6389 43.4161 50.7291 42.6072 50.7585 41.0809C50.7732 40.3163 50.9322 39.5015 51.2355 38.7989C53.008 34.6687 55.6167 31.1497 59.1263 28.3244C59.5444 27.9878 60.0067 27.6867 60.4925 27.4683C62.1207 26.7302 63.9933 27.7015 64.0581 29.4758C64.0993 30.5947 64.3614 31.6279 64.5263 32.7025C64.7265 34.0045 64.6293 35.3477 64.7294 36.6703C64.856 38.3678 64.5204 40.089 65.2152 41.7629C65.492 42.4478 64.965 43.053 64.223 43.3364ZM54.0915 41.4293C55.0602 41.326 56.1467 40.6912 57.1124 39.8233C59.3707 37.7863 60.8782 35.1972 62.3268 32.5785C62.5771 32.1269 62.6183 31.5482 62.7155 31.0198C62.8598 30.2315 62.6654 29.5289 61.9588 29.0979C61.2639 28.6757 60.6427 29.0418 60.0626 29.4374C59.8595 29.5761 59.6652 29.7238 59.4826 29.8891C56.7031 32.3748 54.539 35.3152 53.0374 38.731C52.8078 39.2565 52.7047 39.8587 52.6517 40.4344C52.5811 41.1754 53.008 41.509 54.0915 41.4293Z" fill="white"/>
<path d="M67.8977 28.2209C68.9988 28.4895 69.0489 29.1538 69.1725 29.7767C69.5435 31.6543 69.888 33.5408 70.3238 35.4037C70.5005 36.1594 70.8155 36.9034 71.1924 37.5824C71.9314 38.9109 73.0532 39.0733 74.0337 37.8953C75.8179 35.752 77.1635 33.3725 77.2754 30.4734C77.296 29.9332 77.2813 29.3841 77.3755 28.8556C77.4638 28.3567 77.6729 27.8814 77.8407 27.3647C78.9272 27.536 79.254 28.1323 79.1833 28.953C79.0656 30.3229 78.8683 31.6868 78.727 33.0537C78.3884 36.3306 78.0144 39.6017 77.7494 42.8846C77.5757 45.0426 77.5286 47.2155 78.5915 49.1226C78.1028 49.899 77.4432 50.1382 76.8661 49.8252C76.4922 49.6215 76.239 48.978 76.1536 48.4938C75.6825 45.8486 75.9976 43.2005 76.2537 40.5582C76.3774 39.3006 76.5216 38.0459 76.4834 36.7233C76.1212 37.2311 75.7708 37.7477 75.394 38.2466C75.0701 38.6777 74.7491 39.1205 74.3693 39.5013C72.6763 41.1959 71.1247 40.9834 70.0235 38.8578C68.8104 36.5196 68.248 33.9748 67.8505 31.3886C67.7534 30.7568 67.6444 30.1221 67.6327 29.4874C67.6238 29.0918 67.7917 28.6903 67.8977 28.2209Z" fill="white"/>
<path d="M90.6954 18.2869C88.6962 19.9372 87.8129 22.1248 85.6724 23.4061C85.9226 22.1632 88.6373 18.715 90.2508 17.3481C91.6936 17.8736 95.3416 21.685 95.5094 23.043C94.3081 22.5883 93.7546 21.558 92.9861 20.8347C92.1735 20.0701 91.4816 19.1726 90.6954 18.2869Z" fill="white"/>
</svg>
