<svg width="80" height="80" viewBox="0 0 80 80" fill="none" xmlns="http://www.w3.org/2000/svg">
<circle cx="40" cy="40" r="40" fill="#EAF6EF"/>
<path d="M35.9579 22.5969L35.9576 22.5969C34.8866 22.7068 34.0011 22.9387 33.2156 23.4562C32.7498 23.7641 32.3303 24.1339 31.9706 24.5589L35.9579 22.5969ZM35.9579 22.5969C36.9978 22.4895 38.2941 22.489 39.9335 22.489H40.0668C41.7062 22.489 43.0025 22.4895 44.0424 22.5969L44.0426 22.5969C45.1128 22.7069 45.9996 22.9373 46.7846 23.4561L46.7854 23.4566C47.2502 23.7623 47.6697 24.1334 48.0298 24.5591C48.637 25.2774 48.9706 26.1295 49.2084 27.1806L49.2084 27.1808C49.4366 28.1867 49.5899 29.4556 49.7826 31.0544L49.7897 31.1132L49.7897 31.1136L49.9597 32.5349L49.9597 32.5352M35.9579 22.5969L49.9597 32.5352M30.792 27.1806L30.7919 27.1808C30.5637 28.1868 30.4104 29.4557 30.2177 31.0545L30.2107 31.1132L30.2106 31.1135L30.0407 32.5349L30.0406 32.5352C29.8394 34.2073 29.6791 35.5521 29.7001 36.6161C29.7225 37.7241 29.9408 38.6747 30.6276 39.4485C31.3148 40.2227 32.2328 40.5542 33.3305 40.7079C34.3833 40.8548 35.7378 40.8557 37.4218 40.8557H37.4218H38.7502H39.1502V41.2557V42.9224V43.3224H38.7502H31.6668C31.2049 43.3224 30.7723 43.4474 30.4012 43.6632L29.9762 43.9103L29.8207 43.4439L29.3559 42.0494C29.3559 42.0494 29.3559 42.0493 29.3558 42.0493C29.2411 41.7067 29.1653 41.4832 29.0286 41.185C28.8969 40.9016 28.8311 40.7913 28.7264 40.6158L28.7244 40.6126L29.068 40.4076L28.7244 40.6126L28.7202 40.6054C28.7199 40.6049 28.7196 40.6044 28.7192 40.6039C28.2746 39.8741 27.7108 39.2632 26.8052 38.8633C25.9355 38.4798 24.821 38.3224 23.3335 38.3224C23.1081 38.3224 22.8919 38.4119 22.7325 38.5713C22.573 38.7307 22.4835 38.9469 22.4835 39.1724C22.4835 39.3978 22.573 39.614 22.7325 39.7734C22.8919 39.9328 23.1081 40.0224 23.3335 40.0224C24.7322 40.0224 25.5679 40.1764 26.1185 40.4198C26.6262 40.6441 26.951 40.9686 27.2672 41.49L27.2676 41.4907C27.3479 41.6236 27.4206 41.761 27.4854 41.9022L27.4874 41.9065L27.4873 41.9065C27.5907 42.139 27.6795 42.3778 27.7531 42.6213L29.1929 46.9405C29.2285 47.0472 29.2851 47.1457 29.3593 47.2303L29.4059 47.2835L29.4315 47.3495C29.7365 48.1366 30.2723 48.813 30.9687 49.29C31.6651 49.767 32.4894 50.0223 33.3335 50.0224H38.7502H39.1502V50.4224V52.3657V52.6688L38.8583 52.7508C37.9698 53.0004 37.156 53.4639 36.488 54.1007C35.8207 54.7368 35.3192 55.5266 35.0272 56.4011C34.9603 56.6134 34.9793 56.8435 35.0803 57.042C35.1816 57.2412 35.3572 57.3925 35.5693 57.4631C35.7813 57.5337 36.0126 57.518 36.2131 57.4193C36.413 57.321 36.5662 57.1482 36.64 56.9381C36.9649 55.9652 37.6555 55.1569 38.5658 54.6841L39.1502 54.3805V55.039V56.6724C39.1502 56.8978 39.2397 57.114 39.3991 57.2734C39.5585 57.4328 39.7747 57.5224 40.0002 57.5224C40.2256 57.5224 40.4418 57.4328 40.6012 57.2734C40.7606 57.114 40.8502 56.8978 40.8502 56.6724V55.0407V54.3824L41.4345 54.6857C42.3428 55.1572 43.0325 55.9628 43.3586 56.9327C43.4367 57.1357 43.5897 57.3011 43.7862 57.3947C43.9847 57.4893 44.2121 57.5033 44.4206 57.4337C44.6292 57.3642 44.8027 57.2166 44.9047 57.0219C45.0057 56.8292 45.0289 56.6052 44.9697 56.396C44.6777 55.5237 44.1771 54.7359 43.5113 54.101C42.8436 53.4642 42.0301 53.0006 41.1419 52.7508L40.8502 52.6687V52.3657V50.4224V50.0224H41.2502H46.6668C47.5109 50.0223 48.3352 49.767 49.0316 49.29C49.728 48.813 50.2639 48.1366 50.5689 47.3495L50.5944 47.2835L50.6411 47.2302L30.792 27.1806ZM30.792 27.1806C31.0297 26.1295 31.3634 25.2774 31.9705 24.5591L30.792 27.1806ZM51.2803 40.6068L51.2803 40.6068L51.2782 40.6103C51.1711 40.7883 51.1055 40.8973 50.9722 41.1838C50.847 41.4624 50.7391 41.7484 50.6491 42.0402L50.6463 42.0493L50.6462 42.0493L50.1795 43.4443L50.0232 43.9114L49.5981 43.6626C49.2284 43.4462 48.7963 43.3224 48.3335 43.3224H41.2502H40.8502V42.9224V41.2557V40.8557H41.2502H42.5785H42.5786L51.2803 40.6068ZM51.2803 40.6068C51.2803 40.6067 51.2803 40.6067 51.2803 40.6067L51.2803 40.6068ZM49.9597 32.5352C50.1609 34.2072 50.3212 35.5519 50.3002 36.6159L49.9597 32.5352Z" stroke="#455D58" stroke-width="0.8"/>
</svg>
