<svg width="48" height="48" viewBox="0 0 48 48" fill="none" xmlns="http://www.w3.org/2000/svg">
<rect width="48" height="48" rx="24" fill="#324F4C"/>
<path d="M29 14H19C16.2386 14 14 16.2386 14 19V29C14 31.7614 16.2386 34 19 34H29C31.7614 34 34 31.7614 34 29V19C34 16.2386 31.7614 14 29 14Z" fill="white"/>
<path d="M28.0002 23.3698C28.1236 24.2021 27.9815 25.052 27.594 25.7988C27.2065 26.5456 26.5933 27.1512 25.8418 27.5295C25.0903 27.9077 24.2386 28.0394 23.408 27.9057C22.5773 27.7721 21.81 27.3799 21.215 26.785C20.6201 26.1901 20.2279 25.4227 20.0943 24.592C19.9606 23.7614 20.0923 22.9097 20.4705 22.1582C20.8488 21.4067 21.4544 20.7936 22.2012 20.4061C22.948 20.0186 23.7979 19.8764 24.6302 19.9998C25.4791 20.1257 26.265 20.5213 26.8719 21.1281C27.4787 21.735 27.8743 22.5209 28.0002 23.3698Z" stroke="#4B4646" stroke-width="1.5" stroke-linecap="round" stroke-linejoin="round"/>
<path d="M29.5 18.5H29.51" stroke="#4B4646" stroke-width="1.5" stroke-linecap="round" stroke-linejoin="round"/>
</svg>
