<svg width="64" height="65" viewBox="0 0 64 65" fill="none" xmlns="http://www.w3.org/2000/svg">
<path d="M47.0848 44.9183C43.9512 48.0519 36.5274 55.4757 33.4133 58.5898C32.6323 59.3708 31.3689 59.3722 30.5878 58.5912C27.5231 55.5265 20.2683 48.2717 16.9149 44.9183C8.58371 36.5871 8.58371 23.0796 16.9149 14.7484C25.2461 6.4172 38.7536 6.4172 47.0848 14.7484C55.416 23.0796 55.416 36.5871 47.0848 44.9183Z" stroke="#5D6566" stroke-width="1.5" stroke-linecap="round" stroke-linejoin="round"/>
<path d="M39.9998 29.8333C39.9998 34.2516 36.4181 37.8333 31.9998 37.8333C27.5816 37.8333 23.9998 34.2516 23.9998 29.8333C23.9998 25.4151 27.5816 21.8333 31.9998 21.8333C36.4181 21.8333 39.9998 25.4151 39.9998 29.8333Z" stroke="#5D6566" stroke-width="1.5" stroke-linecap="round" stroke-linejoin="round"/>
</svg>
