<svg width="24" height="24" viewBox="0 0 24 24" fill="none" xmlns="http://www.w3.org/2000/svg">
<path fill-rule="evenodd" clip-rule="evenodd" d="M3.6001 5.99999C3.6001 5.33725 4.13736 4.79999 4.8001 4.79999H19.2001C19.8628 4.79999 20.4001 5.33725 20.4001 5.99999C20.4001 6.66273 19.8628 7.19999 19.2001 7.19999H4.8001C4.13736 7.19999 3.6001 6.66273 3.6001 5.99999Z" fill="#061214"/>
<path fill-rule="evenodd" clip-rule="evenodd" d="M3.6001 12C3.6001 11.3372 4.13736 10.8 4.8001 10.8H19.2001C19.8628 10.8 20.4001 11.3372 20.4001 12C20.4001 12.6627 19.8628 13.2 19.2001 13.2H4.8001C4.13736 13.2 3.6001 12.6627 3.6001 12Z" fill="#061214"/>
<path fill-rule="evenodd" clip-rule="evenodd" d="M10.8001 18C10.8001 17.3372 11.3374 16.8 12.0001 16.8H19.2001C19.8628 16.8 20.4001 17.3372 20.4001 18C20.4001 18.6627 19.8628 19.2 19.2001 19.2H12.0001C11.3374 19.2 10.8001 18.6627 10.8001 18Z" fill="#061214"/>
</svg>
