<svg width="64" height="65" viewBox="0 0 64 65" fill="none" xmlns="http://www.w3.org/2000/svg">
<path d="M8 13.8333C8 10.8878 10.3878 8.5 13.3333 8.5H22.078C23.2258 8.5 24.2448 9.23448 24.6078 10.3234L28.602 22.3059C29.0216 23.5649 28.4517 24.9408 27.2647 25.5343L21.2454 28.544C24.1847 35.0632 29.4368 40.3153 35.956 43.2547L38.9657 37.2353C39.5592 36.0483 40.9351 35.4784 42.1941 35.898L54.1766 39.8922C55.2655 40.2552 56 41.2742 56 42.422V51.1667C56 54.1122 53.6122 56.5 50.6667 56.5H48C25.9086 56.5 8 38.5914 8 16.5V13.8333Z" stroke="#5D6566" stroke-width="1.5" stroke-linecap="round" stroke-linejoin="round"/>
</svg>
