<svg width="80" height="80" viewBox="0 0 80 80" fill="none" xmlns="http://www.w3.org/2000/svg">
<circle cx="40" cy="40" r="40" fill="#EAF6EF"/>
<path d="M51.8003 25C52.9495 25 54.0517 25.4565 54.8644 26.2692C55.677 27.0818 56.1335 28.184 56.1335 29.3332V30.7112C56.1343 31.2826 56.0067 31.8469 55.7601 32.3623C55.5135 32.8777 55.1542 33.3311 54.7088 33.689C55.4147 34.1648 55.9928 34.8068 56.3924 35.5584C56.792 36.3101 57.0007 37.1485 57.0002 37.9997V40.5997C57.0002 40.8295 56.9089 41.05 56.7464 41.2125C56.5838 41.375 56.3634 41.4663 56.1335 41.4663C55.9037 41.4663 55.6833 41.375 55.5207 41.2125" stroke="#455D58"/>
<path d="M48.9461 30.8127C49.1086 30.6502 49.1999 30.4297 49.1999 30.1999C49.1999 29.97 49.1086 29.7496 48.9461 29.5871C48.7835 29.4246 48.5631 29.3332 48.3332 29.3332C47.184 29.3332 46.0818 29.7898 45.2692 30.6024C44.4565 31.4151 44 32.5172 44 33.6665V35.2421C44 36.3913 44.4565 37.4935 45.2692 38.3061C46.0818 39.1188 47.184 39.5753 48.3332 39.5753H50.9332C51.163 39.5753 51.3835 39.6666 51.546 39.8291C51.7085 39.9917 51.7998 40.2121 51.7998 40.442V40.5997C51.7998 40.8295 51.8911 41.05 52.0537 41.2125C52.2162 41.375 52.4366 41.4663 52.6665 41.4663" stroke="#455D58"/>
<path d="M23.0955 43.0945C22.6079 43.5821 22.334 44.2434 22.334 44.9329V46.6662C22.334 47.3558 22.6079 48.0171 23.0955 48.5047C23.5831 48.9922 24.2444 49.2662 24.9339 49.2662H47.4668C48.1564 49.2662 48.8177 48.9922 49.3052 48.5047C49.7928 48.0171 50.0668 47.3558 50.0668 46.6662V44.9329C50.0668 44.2434 49.7928 43.5821 49.3052 43.0945C48.8177 42.6069 48.1564 42.333 47.4668 42.333H24.9339C24.2444 42.333 23.5831 42.6069 23.0955 43.0945Z" stroke="#455D58"/>
<path d="M52.6665 43.1996C52.8963 43.1996 53.1167 43.2909 53.2793 43.4535C53.4418 43.616 53.5331 43.8364 53.5331 44.0663V47.5329C53.5331 47.7627 53.4418 47.9832 53.2793 48.1457C53.1167 48.3082 52.8963 48.3995 52.6665 48.3995C52.4366 48.3995 52.2162 48.3082 52.0536 48.1457C51.8911 47.9832 51.7998 47.7627 51.7998 47.5329V44.0663C51.7998 43.8364 51.8911 43.616 52.0536 43.4535C52.2162 43.2909 52.4366 43.1996 52.6665 43.1996ZM56.133 43.1996C56.3629 43.1996 56.5833 43.2909 56.7459 43.4535C56.9084 43.616 56.9997 43.8364 56.9997 44.0663V47.5329C56.9997 47.7627 56.9084 47.9832 56.7459 48.1457C56.5833 48.3082 56.3629 48.3995 56.133 48.3995C55.9032 48.3995 55.6828 48.3082 55.5202 48.1457C55.3577 47.9832 55.2664 47.7627 55.2664 47.5329V44.0663C55.2664 43.8364 55.3577 43.616 55.5202 43.4535C55.6828 43.2909 55.9032 43.1996 56.133 43.1996Z" stroke="#455D58"/>
</svg>
