<svg width="80" height="80" viewBox="0 0 80 80" fill="none" xmlns="http://www.w3.org/2000/svg">
<circle cx="40" cy="40" r="40" fill="#EAF6EF"/>
<path d="M50.5005 33.3276H52.1672C53.9353 33.3276 55.631 34.03 56.8812 35.2803C58.1314 36.5305 58.8338 38.2262 58.8338 39.9943C58.8338 41.7624 58.1314 43.4581 56.8812 44.7083C55.631 45.9586 53.9353 46.661 52.1672 46.661H50.5005" stroke="#455D58" stroke-linecap="round" stroke-linejoin="round"/>
<path d="M23.834 33.3276H50.5006V48.3276C50.5006 50.0957 49.7983 51.7914 48.548 53.0417C47.2978 54.2919 45.6021 54.9943 43.834 54.9943H30.5007C28.7325 54.9943 27.0368 54.2919 25.7866 53.0417C24.5364 51.7914 23.834 50.0957 23.834 48.3276V33.3276Z" stroke="#455D58" stroke-linecap="round" stroke-linejoin="round"/>
<path d="M30.5005 21.6626V26.6626" stroke="#455D58" stroke-linecap="round" stroke-linejoin="round"/>
<path d="M37.167 21.6626V26.6626" stroke="#455D58" stroke-linecap="round" stroke-linejoin="round"/>
<path d="M43.834 21.6626V26.6626" stroke="#455D58" stroke-linecap="round" stroke-linejoin="round"/>
</svg>
