<svg width="80" height="80" viewBox="0 0 80 80" fill="none" xmlns="http://www.w3.org/2000/svg">
<circle cx="40" cy="40" r="40" fill="#EAF6EF"/>
<path d="M41.6667 46.6667V30C41.6667 29.0795 40.9205 28.3333 40 28.3333H26.6667C25.7462 28.3333 25 29.0795 25 30V46.6667C25 47.5871 25.7462 48.3333 26.6667 48.3333H28.3333M41.6667 46.6667C41.6667 47.5871 40.9205 48.3333 40 48.3333H35M41.6667 46.6667L41.6667 33.3333C41.6667 32.4129 42.4129 31.6667 43.3333 31.6667H47.643C48.085 31.6667 48.5089 31.8423 48.8215 32.1548L54.5118 37.8452C54.8244 38.1577 55 38.5817 55 39.0237V46.6667C55 47.5871 54.2538 48.3333 53.3333 48.3333H51.6667M41.6667 46.6667C41.6667 47.5871 42.4129 48.3333 43.3333 48.3333H45M28.3333 48.3333C28.3333 50.1743 29.8257 51.6667 31.6667 51.6667C33.5076 51.6667 35 50.1743 35 48.3333M28.3333 48.3333C28.3333 46.4924 29.8257 45 31.6667 45C33.5076 45 35 46.4924 35 48.3333M45 48.3333C45 50.1743 46.4924 51.6667 48.3333 51.6667C50.1743 51.6667 51.6667 50.1743 51.6667 48.3333M45 48.3333C45 46.4924 46.4924 45 48.3333 45C50.1743 45 51.6667 46.4924 51.6667 48.3333" stroke="#455D58" stroke-width="0.8"/>
</svg>
